<svg width="16" height="17" viewBox="0 0 16 17" fill="none" xmlns="http://www.w3.org/2000/svg">
<g clip-path="url(#clip0_195_29)">
<path d="M16.0001 8.67726C16.0001 8.02136 15.9456 7.54274 15.8277 7.04639H8.16333V10.0068H12.6622C12.5715 10.7425 12.0817 11.8504 10.9932 12.5949L10.978 12.694L13.4013 14.5285L13.5692 14.5449C15.1111 13.1533 16.0001 11.1058 16.0001 8.67726" fill="#4285F4"/>
<path d="M8.16314 16.4771C10.3672 16.4771 12.2175 15.768 13.569 14.5448L10.9931 12.5948C10.3037 13.0646 9.37853 13.3925 8.16314 13.3925C6.00443 13.3925 4.17224 12.001 3.51912 10.0776L3.42338 10.0856L0.903559 11.9912L0.870605 12.0808C2.213 14.6866 4.97037 16.4771 8.16314 16.4771Z" fill="#34A853"/>
<path d="M3.51924 10.0778C3.34691 9.58142 3.24717 9.04957 3.24717 8.50006C3.24717 7.95049 3.34691 7.4187 3.51017 6.92235L3.50561 6.81664L0.954205 4.88037L0.870727 4.91917C0.317464 6.00053 0 7.21485 0 8.50006C0 9.78526 0.317464 10.9995 0.870727 12.0809L3.51924 10.0778" fill="#FBBC05"/>
<path d="M8.16314 3.60742C9.696 3.60742 10.73 4.25446 11.3196 4.79517L13.6234 2.59701C12.2085 1.3118 10.3672 0.522949 8.16314 0.522949C4.97037 0.522949 2.213 2.31336 0.870605 4.91921L3.51005 6.92238C4.17224 4.99901 6.00443 3.60742 8.16314 3.60742" fill="#EB4335"/>
</g>
<defs>
<clipPath id="clip0_195_29">
<rect y="0.5" width="16" height="16" rx="8" fill="white"/>
</clipPath>
</defs>
</svg>
