<svg width="76" height="90" viewBox="0 0 76 90" fill="none" xmlns="http://www.w3.org/2000/svg">
<g clip-path="url(#clip0_45_863)">
<path d="M57.2023 50.8897C56.8384 47.7485 55.1914 44.8182 52.6795 42.8482C50.2214 40.9208 47.132 40.0772 43.9572 40.4743C41.798 40.7884 39.9354 41.5558 38.4098 42.7584C37.8233 42.3209 37.0302 41.7532 36.5426 41.4818C31.4401 38.6524 25.1489 39.8057 21.5854 44.2191C19.1701 47.1875 18.478 50.8022 19.5318 54.9643C20.1474 57.4009 21.5742 59.8241 23.4773 61.6819C23.502 62.7971 23.9805 63.8583 24.8321 64.6526C25.441 65.2203 26.1802 65.5838 26.9396 65.7072C27.0879 66.5396 27.4969 67.3384 28.0765 67.8679C28.6562 68.44 29.4179 68.8013 30.2313 68.9135C30.393 69.7661 30.8312 70.6276 31.4333 71.1796C32.0355 71.7293 32.9747 72.2656 33.952 72.4473C34.2598 73.4884 34.8642 74.5497 36.2775 75.0208C36.5022 75.0971 36.9808 75.2273 37.5739 75.2273C38.2929 75.2273 39.1849 75.0343 40.0005 74.3141C40.0163 74.2984 40.0342 74.2849 40.05 74.2692C40.1151 74.2019 40.2364 74.0919 40.3915 73.9461C41.7643 72.6627 42.7978 71.6037 43.3685 70.7039C44.3482 70.9597 45.503 70.87 46.2849 70.2664C47.2196 69.5978 47.6286 68.6509 47.6757 67.7153C48.5767 67.657 49.4732 67.271 50.0304 66.7236C50.6191 66.1447 51.01 65.2293 51.0258 64.3161C52.0301 64.233 52.9333 63.8292 53.5827 63.1426C54.4455 62.2317 54.5084 61.0717 54.3466 60.2662C56.562 57.5692 57.6 54.1834 57.2046 50.8897H57.2023ZM25.5129 61.6999L29.2853 58.0516C29.4718 57.9282 30.447 57.3628 31.2266 58.2984C31.8288 59.0209 31.5884 59.6491 31.476 59.86L27.4699 63.7237C27.043 63.7148 26.5936 63.5195 26.2184 63.1718C25.7893 62.7724 25.5443 62.2496 25.5129 61.7021V61.6999ZM28.9146 65.1462L32.8825 61.3207C33.1499 61.1838 34.0689 60.771 34.5834 61.2781C35.1384 61.8255 35.0822 62.5772 35.0125 62.9339L30.7817 66.9188C30.3683 66.9188 29.8695 66.7886 29.4741 66.4005C29.1595 66.1133 28.9461 65.6152 28.9124 65.1485L28.9146 65.1462ZM32.204 68.3682L36.4101 64.4058C36.8123 64.3452 37.6616 64.2914 38.1222 64.8366C38.4367 65.2091 38.4277 65.8799 38.3783 66.2771L34.3565 70.4571C33.8464 70.3719 33.2263 70.0712 32.8061 69.6853C32.4691 69.3757 32.2467 68.8057 32.204 68.3682ZM39.0007 72.463C38.8389 72.6133 38.7108 72.7345 38.6322 72.813C37.9829 73.3695 37.2212 73.199 36.9224 73.098C36.5426 72.9701 36.1539 72.7592 35.8821 71.8011L39.9466 67.5739C40.3757 67.3586 41.0723 67.74 41.3149 68.0362C41.6272 68.4176 41.7688 69.0054 41.8182 69.3218C41.7014 69.6404 41.1576 70.4482 39.0052 72.4608L39.0007 72.463ZM52.1065 61.7448C51.5381 62.3461 50.7022 62.3394 50.2012 62.2653L43.0023 55.0136C42.6069 54.6165 41.9643 54.612 41.5666 55.0069C41.1689 55.4018 41.1666 56.0435 41.5598 56.4406L48.8958 63.8292C49.1092 64.1904 48.9699 64.9129 48.6014 65.2741C48.2599 65.6107 47.3814 65.8306 47.0107 65.5972L39.5916 58.0045C39.2007 57.6029 38.5581 57.5961 38.1559 57.9865C37.7537 58.3769 37.7469 59.0186 38.1379 59.4203L45.5817 67.0399C45.721 67.5538 45.6626 68.2089 45.0672 68.6352C44.8133 68.8304 44.2111 68.8439 43.764 68.7025C43.6516 68.173 43.4067 67.3945 42.8832 66.7527C42.3867 66.1469 41.4363 65.5479 40.4207 65.4783C40.369 64.8478 40.178 64.1276 39.6725 63.5263C38.9602 62.6849 37.9649 62.3865 37.0864 62.3438C37.0549 61.5294 36.7853 60.5982 36.0124 59.8354C35.2956 59.1263 34.4306 58.9424 33.6352 59.0097C33.588 58.3747 33.3544 57.6791 32.7882 56.9993C31.2311 55.1325 29.0337 55.6822 28.0159 56.4675C27.9867 56.49 27.9575 56.5147 27.9282 56.5416L24.5153 59.8421C23.0661 58.3007 21.9854 56.3868 21.5 54.4684C20.5991 50.9121 21.1428 47.9796 23.1627 45.4958C26.1061 41.8475 31.3187 40.9074 35.554 43.2543C35.8888 43.4405 36.4258 43.8175 36.8909 44.1585L30.9637 49.9518C30.739 50.1492 29.7999 51.0512 29.7909 52.3122C29.7864 52.8798 29.9751 53.7212 30.9031 54.5178C33.0196 56.3397 36.2056 56.1287 38.4772 54.0152C39.3107 53.2388 41.2116 51.3833 42.2608 50.3557L52.3334 60.5825C52.3919 60.8248 52.4548 61.3746 52.1043 61.7425L52.1065 61.7448ZM53.1378 58.5116L42.9956 48.2151C42.8068 48.0222 42.5484 47.9145 42.2788 47.9122H42.2698C42.0025 47.9122 41.7486 48.0177 41.5576 48.2039C41.5239 48.2376 38.2278 51.4775 37.0886 52.5365C35.59 53.9321 33.5431 54.1206 32.2265 52.9853C31.9568 52.7542 31.8198 52.5343 31.8198 52.3346C31.8198 52.0048 32.1478 51.6121 32.3028 51.4775C32.3231 51.4596 32.3433 51.4439 32.3613 51.4259L39.1422 44.798C40.4701 43.5617 42.1889 42.7809 44.2268 42.4847C46.8354 42.1571 49.3923 42.8527 51.4212 44.4435C53.5108 46.0814 54.8814 48.5158 55.1824 51.1275C55.4902 53.6898 54.7488 56.3284 53.1356 58.5116H53.1378Z" fill="#147484"/>
<path d="M37.6795 1.69849L38.2345 27.2589C38.2345 27.2589 30.7907 22.3497 31.2064 14.8153C31.622 7.28086 33.7318 3.45532 37.6795 1.69849Z" fill="#18AA95"/>
<path d="M37.6795 1.69849L38.2345 27.2589C38.2345 27.2589 43.6134 23.0273 44.6829 16.9872C45.7524 10.9471 44.3549 6.67505 37.6795 1.69849Z" fill="#1BDBB6"/>
<path d="M46.1501 14.1377C46.1052 9.11175 43.4045 4.41117 38.1177 0.161565C37.8458 -0.0560758 37.4571 -0.0538321 37.1897 0.168296C36.8819 0.42408 29.6673 6.50904 29.7392 14.8198C29.7819 19.5765 32.213 24.0415 36.9718 28.1093L37.1493 42.0091C37.156 42.4893 37.657 42.8752 38.2727 42.8752H38.2839C38.904 42.8707 39.4028 42.4758 39.3961 41.9912L39.2208 28.3471C40.897 26.7922 46.213 21.2907 46.1501 14.1354V14.1377ZM39.0681 16.3545C39.0613 15.8721 38.5603 15.4906 37.9334 15.4884C37.3133 15.4929 36.8145 15.8878 36.8212 16.3724L36.9448 26.1236C33.1724 22.592 31.2423 18.7979 31.2041 14.8175C31.1435 8.34889 36.1359 3.14795 37.6773 1.70075C42.2833 5.55097 44.638 9.73326 44.6807 14.1444C44.7324 19.5854 41.2228 24.1245 39.1916 26.2941L39.0658 16.3567L39.0681 16.3545Z" fill="#147484"/>
<path d="M62.6824 16.3545L46.2377 37.405C46.2377 37.405 43.4584 28.5266 48.7722 22.7042C54.0859 16.8818 58.3235 15.1765 62.6801 16.3545H62.6824Z" fill="#29A0A3"/>
<path d="M62.6824 16.3545L46.2377 37.4051C46.2377 37.4051 53.3872 37.5262 58.2449 33.3417C63.1025 29.1594 64.7944 24.7797 62.6801 16.3545H62.6824Z" fill="#0FD8D8"/>
<path d="M64.0507 15.3986C63.9743 15.0441 63.6597 14.7883 63.2935 14.7928C62.8756 14.7973 53.0164 14.9655 47.5836 21.7393C44.2987 25.8341 43.3842 31.4277 44.8694 38.363C44.9076 38.538 45.002 38.6884 45.1345 38.7961C45.2693 38.906 45.4423 38.9711 45.6266 38.9688C46.0422 38.9644 55.8812 38.7781 61.314 32.0043C64.5989 27.9096 65.5201 22.3227 64.0507 15.4008V15.3986ZM60.1254 31.0395C56.6249 35.4103 50.9067 36.7969 47.7948 37.2344L54.9824 28.033C55.3644 27.5438 55.2768 26.8393 54.787 26.4579C54.2971 26.0764 53.5916 26.1639 53.2097 26.6531L45.9861 35.8994C45.1997 30.4337 46.1299 26.0002 48.7722 22.7019C52.9985 17.4269 60.476 16.5092 62.6801 16.3522C63.8642 22.5022 63.0036 27.4406 60.1232 31.0373L60.1254 31.0395Z" fill="#147484"/>
<path d="M13.0676 16.3545L29.5123 37.405C29.5123 37.405 32.2916 28.5266 26.9778 22.7042C21.664 16.8818 17.4265 15.1765 13.0699 16.3545H13.0676Z" fill="#12F4A9"/>
<path d="M13.0676 16.3545L29.5123 37.4051C29.5123 37.4051 22.3628 37.5262 17.5051 33.3417C12.6475 29.1594 10.9556 24.7797 13.0699 16.3545H13.0676Z" fill="#28A57E"/>
<path d="M28.1642 21.7393C22.7313 14.9655 12.8699 14.7973 12.4542 14.7928C12.0903 14.7883 11.7735 15.0441 11.6971 15.3986C10.2276 22.3205 11.1466 27.9073 14.4337 32.0021C19.8666 38.7759 29.7055 38.9621 30.1212 38.9666C30.3054 38.9666 30.4784 38.9038 30.6132 38.7938C30.7435 38.6861 30.8401 38.5358 30.8783 38.3608C32.3635 31.4255 31.4513 25.8341 28.1642 21.7371V21.7393ZM29.71 36.2719C29.6763 36.2023 29.6358 36.1373 29.5864 36.0744L21.727 26.0136C21.345 25.5245 20.6395 25.437 20.1497 25.8184C19.6599 26.1998 19.5722 26.9044 19.9542 27.3935L27.6002 37.1828C24.4254 36.6915 18.9926 35.251 15.62 31.0395C12.7396 27.4429 11.8813 22.5044 13.0631 16.3544C15.2673 16.5115 22.7448 17.4269 26.9711 22.7041C29.6718 26.0764 30.5907 30.6357 29.7055 36.2741L29.71 36.2719Z" fill="#147484"/>
<path d="M0 90V83.6592C0 81.6937 1.52336 80.2129 3.51855 80.2129C5.51375 80.2129 7.02363 81.7745 7.02363 83.6592C7.02363 85.6517 5.58115 87.1325 3.57248 87.1325C2.68273 87.1325 1.87387 86.7421 1.33462 86.1498V90H0ZM5.689 83.6727C5.689 82.4611 4.74533 81.4784 3.51855 81.4784C2.29178 81.4784 1.33462 82.4611 1.33462 83.6727C1.33462 84.8843 2.2783 85.8805 3.51855 85.8805C4.75881 85.8805 5.689 84.8709 5.689 83.6727Z" fill="#12F4A9"/>
<path d="M10.1377 77.3477V86.9732H8.8031V77.3477H10.1377Z" fill="#12F4A9"/>
<path d="M11.8903 83.6592C11.8903 81.7745 13.4001 80.2129 15.4088 80.2129C17.4175 80.2129 18.9274 81.6937 18.9274 83.6592V86.971H17.6601V85.8132C17.1613 86.6209 16.2851 87.1325 15.2066 87.1325C13.2923 87.1325 11.8903 85.5709 11.8903 83.6592ZM17.5927 83.6727C17.5927 82.4611 16.6491 81.4649 15.4088 81.4649C14.1686 81.4649 13.2249 82.4611 13.2249 83.6727C13.2249 84.8843 14.182 85.8671 15.4088 85.8671C16.6356 85.8671 17.5927 84.8709 17.5927 83.6727Z" fill="#12F4A9"/>
<path d="M22.1763 83.7804V86.971H20.8417V83.6458C20.8417 81.7207 21.9876 80.2129 24.1176 80.2129C26.2476 80.2129 27.4474 81.7207 27.4474 83.6323V86.971H26.1128V83.7939C26.1128 82.5553 25.4387 81.4918 24.1176 81.4918C22.7964 81.4918 22.1763 82.5553 22.1763 83.7804Z" fill="#12F4A9"/>
<path d="M29.847 84.6017V81.5323H28.5394V80.3745H29.847V78.6648H31.1817V80.3745H33.7161V81.5323H31.1817V84.5613C31.1817 85.4229 31.6939 85.9344 32.4893 85.9344C32.9207 85.9344 33.3925 85.7729 33.7161 85.544V86.7691C33.3791 86.998 32.8533 87.146 32.368 87.146C30.7233 87.146 29.847 86.1094 29.847 84.6017Z" fill="#12F4A9"/>
<path d="M35.4147 86.9845L36.7359 78.6514C36.8168 78.1532 37.1942 77.8975 37.5717 77.8975C37.9087 77.8975 38.2592 78.0994 38.3806 78.5302L40.5375 85.8537C40.5915 86.0152 40.7263 86.096 40.8611 86.096C40.9959 86.096 41.1442 86.0152 41.1846 85.8537L43.3281 78.5571C43.4494 78.1263 43.7999 77.9244 44.137 77.9244C44.5144 77.9244 44.8919 78.1802 44.9593 78.6783L46.1726 86.9711H45.8895L44.6762 78.7187C44.6223 78.3686 44.3931 78.1936 44.137 78.1936C43.9078 78.1936 43.6786 78.3417 43.5977 78.6379L41.4408 85.9345C41.3599 86.2172 41.1172 86.3653 40.8611 86.3653C40.6184 86.3653 40.3623 86.2172 40.2814 85.9345L38.1109 78.611C38.0301 78.3148 37.8009 78.1667 37.5717 78.1667C37.3156 78.1667 37.0729 78.3552 37.019 78.6917L35.6978 86.9845H35.4147Z" fill="#147484"/>
<path d="M47.7903 83.7266C47.7903 81.8957 49.2193 80.3879 51.1201 80.3879C53.0209 80.3879 54.4634 81.8688 54.4634 83.7266V86.971H54.1938V84.992C53.7085 86.2171 52.5356 87.0787 51.1201 87.0787C49.2597 87.0787 47.7903 85.5709 47.7903 83.7266ZM54.1803 83.7266C54.1803 82.0438 52.8187 80.6572 51.1201 80.6572C49.4215 80.6572 48.0734 82.0438 48.0734 83.7266C48.0734 85.4094 49.435 86.8095 51.1201 86.8095C52.8052 86.8095 54.1803 85.4228 54.1803 83.7266Z" fill="#147484"/>
<path d="M57.2944 85.0863V80.7784H55.8115V80.5091H57.2944V78.759H57.5641V80.5091H60.3951V80.7784H57.5641V85.0863C57.5641 86.1633 58.1842 86.823 59.1279 86.823C59.6401 86.823 60.0715 86.621 60.3951 86.3114V86.6345C60.0581 86.9172 59.6132 87.0922 59.1279 87.0922C58.0224 87.0922 57.2944 86.3249 57.2944 85.0863Z" fill="#147484"/>
<path d="M61.905 83.7401C61.905 81.8823 63.4014 80.3879 65.1135 80.3879C66.1919 80.3879 67.1895 80.8591 67.7827 81.8688L67.54 82.0169C66.9873 81.0611 66.0976 80.6572 65.1135 80.6572C63.5497 80.6572 62.1881 82.0573 62.1881 83.7401C62.1881 85.4228 63.5497 86.8229 65.1135 86.8229C66.0976 86.8229 66.9873 86.4191 67.54 85.4632L67.7827 85.6113C67.1895 86.621 66.1919 87.0922 65.1135 87.0922C63.4014 87.0922 61.905 85.5979 61.905 83.7401Z" fill="#147484"/>
<path d="M69.8049 86.971V77.5474H70.0745V82.4073C70.425 81.2226 71.517 80.3879 72.8516 80.3879C74.6311 80.3879 75.75 81.7072 75.75 83.5785V86.971H75.4804V83.5785C75.4804 82.0034 74.6041 80.6572 72.8516 80.6572C71.2743 80.6572 70.0745 81.9361 70.0745 83.6592V86.971H69.8049Z" fill="#147484"/>
</g>
<defs>
<clipPath id="clip0_45_863">
<rect width="75.75" height="90" fill="white"/>
</clipPath>
</defs>
</svg>
