<svg width="109" height="130" viewBox="0 0 109 130" fill="none" xmlns="http://www.w3.org/2000/svg">
<g clip-path="url(#clip0_9_147)">
<path d="M82.3109 73.5074C81.7872 68.9701 79.4173 64.7375 75.8028 61.892C72.2658 59.108 67.8203 57.8894 63.2519 58.4631C60.145 58.9168 57.4647 60.0252 55.2695 61.7623C54.4256 61.1303 53.2844 60.3104 52.5828 59.9182C45.2405 55.8314 36.1878 57.4973 31.0602 63.8722C27.5846 68.1599 26.5888 73.381 28.1051 79.393C28.991 82.9126 31.044 86.4128 33.7824 89.0963C33.818 90.707 34.5066 92.24 35.732 93.3873C36.6081 94.2072 37.6718 94.7323 38.7646 94.9105C38.978 96.1129 39.5664 97.2667 40.4005 98.0315C41.2347 98.858 42.3307 99.3797 43.5011 99.5418C43.7338 100.773 44.3643 102.018 45.2308 102.815C46.0972 103.609 47.4487 104.384 48.855 104.646C49.298 106.15 50.1677 107.683 52.2013 108.364C52.5246 108.474 53.2132 108.662 54.0668 108.662C55.1013 108.662 56.3849 108.383 57.5585 107.343C57.5811 107.32 57.607 107.301 57.6296 107.278C57.7234 107.181 57.898 107.022 58.121 106.811C60.0965 104.957 61.5837 103.428 62.4049 102.128C63.8145 102.498 65.4763 102.368 66.6014 101.496C67.9464 100.53 68.5348 99.1626 68.6027 97.8111C69.8991 97.7269 71.1891 97.1694 71.991 96.3786C72.838 95.5425 73.4006 94.2202 73.4232 92.9011C74.8684 92.7812 76.1681 92.1979 77.1024 91.2061C78.3439 89.8903 78.4345 88.2148 78.2017 87.0513C81.3895 83.1557 82.8832 78.2651 82.3142 73.5074H82.3109ZM36.7116 89.1222L42.1399 83.8525C42.4083 83.6742 43.8114 82.8575 44.9333 84.209C45.7998 85.2525 45.4538 86.16 45.2922 86.4647L39.5276 92.0455C38.9133 92.0326 38.2667 91.7506 37.7268 91.2483C37.1093 90.6714 36.7569 89.9162 36.7116 89.1255V89.1222ZM41.6065 94.1003L47.3161 88.5745C47.7008 88.3768 49.0232 87.7805 49.7635 88.5129C50.5621 89.3037 50.4813 90.3894 50.3811 90.9047L44.2932 96.6606C43.6983 96.6606 42.9805 96.4726 42.4115 95.912C41.9589 95.4971 41.6517 94.7776 41.6032 94.1035L41.6065 94.1003ZM46.3397 98.7542L52.392 93.0308C52.9708 92.9433 54.1929 92.8655 54.8556 93.653C55.3083 94.191 55.2953 95.1601 55.2242 95.7337L49.437 101.772C48.7031 101.648 47.8108 101.214 47.2062 100.657C46.7212 100.209 46.4011 99.3862 46.3397 98.7542ZM56.1198 104.669C55.887 104.886 55.7027 105.061 55.5895 105.175C54.6552 105.978 53.5592 105.732 53.1292 105.586C52.5828 105.401 52.0235 105.097 51.6323 103.713L57.4809 97.607C58.0984 97.2958 59.1007 97.8468 59.4498 98.2746C59.8992 98.8256 60.1029 99.6747 60.174 100.132C60.0059 100.592 59.2235 101.759 56.1262 104.666L56.1198 104.669ZM74.9783 89.187C74.1603 90.0556 72.9576 90.0459 72.2367 89.9389L61.8779 79.4643C61.3089 78.8906 60.3842 78.8841 59.8119 79.4545C59.2397 80.0249 59.2365 80.9518 59.8022 81.5255L70.3582 92.1979C70.6654 92.7196 70.4649 93.7632 69.9347 94.285C69.4433 94.7712 68.1791 95.0888 67.6457 94.7517L56.9701 83.7844C56.4075 83.2043 55.4829 83.1946 54.9041 83.7585C54.3254 84.3224 54.3157 85.2493 54.8783 85.8294L65.5895 96.8356C65.7899 97.5778 65.7058 98.5241 64.8491 99.1399C64.4837 99.4219 63.6173 99.4413 62.9739 99.2371C62.8122 98.4723 62.4598 97.3477 61.7065 96.4208C60.992 95.5457 59.6244 94.6804 58.1631 94.5799C58.0887 93.6692 57.8139 92.6289 57.0865 91.7603C56.0616 90.545 54.6293 90.1139 53.3652 90.0524C53.3199 88.8759 52.932 87.5309 51.8198 86.429C50.7884 85.4049 49.5437 85.1391 48.3992 85.2363C48.3313 84.3192 47.995 83.3145 47.1803 82.3325C44.9398 79.636 41.7778 80.4301 40.3133 81.5644C40.2712 81.5968 40.2292 81.6324 40.1872 81.6713L35.2761 86.4387C33.1908 84.2122 31.6357 81.4477 30.9373 78.6767C29.6409 73.5398 30.4233 69.304 33.3298 65.7163C37.5651 60.4465 45.0659 59.0886 51.1602 62.4786C51.642 62.7476 52.4147 63.292 53.0839 63.7847L44.555 72.1527C44.2317 72.4379 42.8803 73.7408 42.8674 75.5622C42.8609 76.3821 43.1325 77.5975 44.4678 78.748C47.5133 81.3796 52.0978 81.075 55.3665 78.022C56.5659 76.9007 59.3011 74.2204 60.811 72.7361L75.3049 87.5082C75.3889 87.8583 75.4794 88.6523 74.9751 89.1838L74.9783 89.187ZM76.4623 84.5169L61.8682 69.6443C61.5966 69.3655 61.2248 69.21 60.8368 69.2067H60.8239C60.4392 69.2067 60.0738 69.3591 59.799 69.628C59.7505 69.6767 55.0076 74.3566 53.3684 75.8863C51.212 77.9021 48.2666 78.1744 46.372 76.5345C45.9841 76.2006 45.7868 75.883 45.7868 75.5946C45.7868 75.1182 46.2589 74.551 46.482 74.3566C46.5111 74.3306 46.5402 74.3079 46.566 74.282L56.3235 64.7083C58.2342 62.9226 60.7075 61.7947 63.6399 61.3669C67.3935 60.8938 71.0728 61.8984 73.9922 64.1963C76.999 66.5621 78.9712 70.0785 79.4044 73.851C79.8473 77.5521 78.7804 81.3634 76.4591 84.5169H76.4623Z" fill="white"/>
<path d="M66.4074 20.4211C66.3427 13.1614 62.4566 6.37165 54.8492 0.233341C54.4579 -0.0810289 53.8986 -0.0777879 53.5139 0.243064C53.071 0.612529 42.6895 9.40192 42.793 21.4063C42.8544 28.2771 46.3526 34.7265 53.2003 40.6023L53.4557 60.6798C53.4654 61.3734 54.1864 61.9308 55.0722 61.9308H55.0884C55.9807 61.9244 56.6985 61.354 56.6888 60.6539L56.4366 40.9458C58.8485 38.6999 66.4979 30.7531 66.4074 20.4178V20.4211ZM56.2167 23.6231C56.207 22.9263 55.4861 22.3753 54.584 22.3721C53.6917 22.3786 52.974 22.949 52.9837 23.649L53.1615 37.7341C47.7331 32.6329 44.9559 27.1525 44.901 21.4031C44.8137 12.0595 51.9976 4.54701 54.2155 2.45662C60.8433 8.01804 64.2315 14.0591 64.293 20.4308C64.3673 28.29 59.3173 34.8464 56.3946 37.9804L56.2135 23.6263L56.2167 23.6231Z" fill="white"/>
<path d="M92.1654 22.2425C92.0555 21.7304 91.6028 21.3609 91.0758 21.3674C90.4745 21.3739 76.2877 21.617 68.4702 31.4013C63.7434 37.316 62.4275 45.3956 64.5646 55.4133C64.6196 55.6661 64.7553 55.8833 64.9461 56.0388C65.1401 56.1977 65.389 56.2916 65.6541 56.2884C66.2523 56.2819 80.4099 56.0129 88.2275 46.2286C92.9543 40.3139 94.2798 32.244 92.1654 22.2457V22.2425ZM86.5172 44.835C81.4801 51.1483 73.2519 53.1512 68.7741 53.7832L79.1167 40.4921C79.6663 39.7856 79.5402 38.768 78.8354 38.217C78.1306 37.666 77.1154 37.7924 76.5658 38.499L66.1714 51.8548C65.0399 43.9599 66.3784 37.5558 70.1805 32.7917C76.2619 25.1723 87.0216 23.8467 90.1932 23.6199C91.897 32.5032 90.6588 39.6365 86.514 44.8317L86.5172 44.835Z" fill="white"/>
<path d="M43.3426 56.2852C42.7445 56.2787 28.5869 56.0097 20.7693 46.2253C16.0425 40.3106 14.717 32.2407 16.8314 22.2425C16.9413 21.7304 17.394 21.3609 17.921 21.3674C18.5223 21.3739 32.709 21.617 40.5266 31.4013C45.2534 37.316 46.5693 45.3956 44.4322 55.4133C44.3772 55.6661 44.2414 55.8833 44.0507 56.0388C43.8599 56.1944 43.6078 56.2916 43.3426 56.2884V56.2852ZM22.4796 44.835C28.561 52.4544 39.2948 53.7961 42.4632 54.0295C44.1865 45.1299 42.9579 37.9869 38.8163 32.7949C32.7349 25.1755 21.9752 23.85 18.8036 23.6231C17.0997 32.5065 18.338 39.6398 22.4828 44.835H22.4796Z" fill="white"/>
<path d="M41.2993 54.723C40.8176 54.723 40.3424 54.5091 40.0223 54.1008L28.713 39.5685C28.1634 38.8619 28.2894 37.8443 28.9943 37.2933C29.6991 36.7424 30.7142 36.8688 31.2639 37.5753L42.5732 52.1076C43.1228 52.8141 42.9967 53.8318 42.2919 54.3827C41.9977 54.6128 41.6453 54.7263 41.2993 54.7263V54.723Z" fill="white"/>
<path d="M0 130V120.841C0 118.002 2.19203 115.863 5.063 115.863C7.93397 115.863 10.1066 118.119 10.1066 120.841C10.1066 123.719 8.03097 125.858 5.14059 125.858C3.8603 125.858 2.69639 125.294 1.92045 124.439V130H0ZM8.18615 120.861C8.18615 119.111 6.82826 117.691 5.063 117.691C3.29774 117.691 1.92045 119.111 1.92045 120.861C1.92045 122.611 3.27834 124.05 5.063 124.05C6.84766 124.05 8.18615 122.591 8.18615 120.861Z" fill="white"/>
<path d="M14.5877 111.724V125.628H12.6672V111.724H14.5877Z" fill="white"/>
<path d="M17.1094 120.841C17.1094 118.119 19.2821 115.863 22.1724 115.863C25.0628 115.863 27.2354 118.002 27.2354 120.841V125.625H25.412V123.952C24.6942 125.119 23.4333 125.858 21.8815 125.858C19.1269 125.858 17.1094 123.602 17.1094 120.841ZM25.315 120.861C25.315 119.111 23.9571 117.672 22.1724 117.672C20.3878 117.672 19.0299 119.111 19.0299 120.861C19.0299 122.611 20.4072 124.03 22.1724 124.03C23.9377 124.03 25.315 122.591 25.315 120.861Z" fill="white"/>
<path d="M31.9105 121.016V125.625H29.99V120.822C29.99 118.041 31.6389 115.863 34.7038 115.863C37.7688 115.863 39.4953 118.041 39.4953 120.802V125.625H37.5748V121.036C37.5748 119.247 36.6049 117.71 34.7038 117.71C32.8028 117.71 31.9105 119.247 31.9105 121.016Z" fill="white"/>
<path d="M42.9482 122.202V117.769H41.0666V116.096H42.9482V113.627H44.8687V116.096H48.5156V117.769H44.8687V122.144C44.8687 123.388 45.6058 124.127 46.7503 124.127C47.3711 124.127 48.05 123.894 48.5156 123.564V125.333C48.0306 125.664 47.2741 125.878 46.5757 125.878C44.2091 125.878 42.9482 124.38 42.9482 122.202Z" fill="white"/>
<path d="M50.9598 125.644L52.8608 113.607C52.9772 112.888 53.5204 112.518 54.0635 112.518C54.5485 112.518 55.0529 112.81 55.2274 113.432L58.3312 124.011C58.4088 124.244 58.6028 124.361 58.7968 124.361C58.9907 124.361 59.2041 124.244 59.2623 124.011L62.3467 113.471C62.5213 112.849 63.0256 112.557 63.5106 112.557C64.0537 112.557 64.5969 112.927 64.6939 113.646L66.4398 125.625H66.0324L64.2865 113.705C64.2089 113.199 63.8792 112.946 63.5106 112.946C63.1808 112.946 62.851 113.16 62.7346 113.588L59.6309 124.127C59.5145 124.536 59.1653 124.75 58.7968 124.75C58.4476 124.75 58.079 124.536 57.9626 124.127L54.8395 113.549C54.7231 113.121 54.3933 112.907 54.0635 112.907C53.695 112.907 53.3458 113.18 53.2682 113.666L51.3671 125.644H50.9598Z" fill="white"/>
<path d="M68.7676 120.938C68.7676 118.294 70.8238 116.116 73.559 116.116C76.2942 116.116 78.3698 118.255 78.3698 120.938V125.625H77.9818V122.766C77.2835 124.536 75.5958 125.78 73.559 125.78C70.882 125.78 68.7676 123.602 68.7676 120.938ZM77.9625 120.938C77.9625 118.508 76.0032 116.505 73.559 116.505C71.1148 116.505 69.1749 118.508 69.1749 120.938C69.1749 123.369 71.1342 125.391 73.559 125.391C75.9838 125.391 77.9625 123.389 77.9625 120.938Z" fill="white"/>
<path d="M82.4435 122.902V116.68H80.3097V116.291H82.4435V113.763H82.8315V116.291H86.9052V116.68H82.8315V122.902C82.8315 124.458 83.7238 125.411 85.0817 125.411C85.8189 125.411 86.4396 125.119 86.9052 124.672V125.139C86.4202 125.547 85.7801 125.8 85.0817 125.8C83.491 125.8 82.4435 124.691 82.4435 122.902Z" fill="white"/>
<path d="M89.0778 120.958C89.0778 118.274 91.231 116.116 93.6946 116.116C95.2465 116.116 96.682 116.796 97.5355 118.255L97.1863 118.469C96.391 117.088 95.1107 116.505 93.6946 116.505C91.4444 116.505 89.4851 118.527 89.4851 120.958C89.4851 123.389 91.4444 125.411 93.6946 125.411C95.1107 125.411 96.391 124.827 97.1863 123.447L97.5355 123.661C96.682 125.119 95.2465 125.8 93.6946 125.8C91.231 125.8 89.0778 123.641 89.0778 120.958Z" fill="white"/>
<path d="M100.445 125.625V112.013H100.833V119.033C101.338 117.322 102.909 116.116 104.829 116.116C107.39 116.116 109 118.022 109 120.724V125.625H108.612V120.724C108.612 118.449 107.351 116.505 104.829 116.505C102.56 116.505 100.833 118.352 100.833 120.841V125.625H100.445Z" fill="white"/>
</g>
<defs>
<clipPath id="clip0_9_147">
<rect width="109" height="130" fill="white"/>
</clipPath>
</defs>
</svg>
